<?xml version="1.0" standalone="no"?><!DOCTYPE svg PUBLIC "-//W3C//DTD SVG 1.1//EN" "http://www.w3.org/Graphics/SVG/1.1/DTD/svg11.dtd"><svg t="1755946631728" class="icon" viewBox="0 0 1024 1024" version="1.1" xmlns="http://www.w3.org/2000/svg" p-id="9843" xmlns:xlink="http://www.w3.org/1999/xlink" width="32" height="32"><path d="M14.181 515.232c0 216.852 138.961 401.226 332.669 468.907 26.061 6.612 22.074-12.058 22.074-24.7l0-86.06c-150.63 17.698-156.659-82.073-166.869-98.702-20.518-34.91-68.751-43.759-54.359-60.388 34.327-17.698 69.237 4.473 109.788 64.278 29.367 43.37 86.352 36.077 115.428 28.784 6.321-26.061 19.935-49.302 38.508-67.487-155.881-27.714-221.034-123.013-221.034-236.301 0-54.845 18.087-105.412 53.678-146.157-22.56-67.292 2.139-124.666 5.446-133.223 64.472-5.835 131.376 46.093 136.627 50.178 36.661-9.822 78.475-15.17 125.249-15.17 47.066 0 89.075 5.446 125.93 15.364 12.544-9.53 74.683-54.067 134.585-48.622 3.209 8.557 27.325 64.667 6.126 130.987 35.98 40.842 54.262 91.7 54.262 146.837 0 113.483-65.445 208.879-221.909 236.398 26.158 25.769 42.301 61.555 42.301 101.133l0 124.86c0.875 9.919 0 19.935 16.726 19.935 196.529-66.223 338.018-251.957 338.018-470.755 0-274.323-222.395-496.621-496.621-496.621C236.479 18.611 14.181 240.909 14.181 515.232z" fill="#272636" p-id="9844"></path></svg>