<?xml version="1.0" standalone="no"?><!DOCTYPE svg PUBLIC "-//W3C//DTD SVG 1.1//EN" "http://www.w3.org/Graphics/SVG/1.1/DTD/svg11.dtd"><svg t="1755946719374" class="icon" viewBox="0 0 1061 1024" version="1.1" xmlns="http://www.w3.org/2000/svg" p-id="15801" id="mx_n_1755946719374" xmlns:xlink="http://www.w3.org/1999/xlink" width="33.15625" height="32"><path d="M506.386963 9.007407c11.169185-10.770963 33.507556-10.770963 44.676741 0l139.567407 134.731852h195.413333c16.763259 0 27.932444 10.770963 27.932445 26.927408v188.416l139.567407 134.599111c11.188148 10.770963 11.188148 26.927407 0 37.69837l-139.567407 134.599111v188.434963c0 16.137481-11.188148 26.927407-27.932445 26.927408H690.631111l-139.567407 134.580148a27.685926 27.685926 0 0 1-39.082667 0l-139.58637-134.599111H176.981333c-16.763259 0-27.932444-10.770963-27.932444-26.927408V665.979259L9.348741 531.380148c-11.169185-10.770963-11.169185-32.312889 0-43.083852l139.700148-134.599111V170.666667c0-16.137481 11.188148-26.927407 27.932444-26.927408h195.413334L506.386963 9.02637zM400.308148 186.804148c-5.594074 5.385481-11.169185 10.770963-16.744296 10.770963h-178.669037v172.278519c0 5.385481-5.594074 16.156444-5.594074 21.541926l-128.417185 118.442666 128.417185 123.828148c5.594074 5.385481 5.594074 10.770963 5.594074 21.541926v172.278519h178.669037c5.575111 0 16.744296 5.385481 22.319407 5.385481l128.417185 123.828148 128.417186-123.828148c5.594074-5.385481 11.169185-5.385481 22.33837-5.385481h178.669037v-172.278519c0-5.385481 5.575111-16.156444 5.575111-21.541926l128.417185-123.828148-128.417185-123.828148c-5.575111-5.385481-5.575111-10.770963-5.575111-21.541926V197.594074h-178.669037c-5.594074 0-16.744296-5.385481-22.33837-5.385481l-133.992297-123.828149L400.308148 186.785185z" fill="#f6b637" p-id="15802"></path><path d="M361.225481 456.00237c-5.594074-10.770963-27.913481-10.770963-39.082666 0s-11.169185 26.927407 0 37.679408l150.755555 145.370074c11.150222 5.385481 27.913481 5.385481 39.063704-5.385482l228.920889-220.728889c11.188148-10.770963 11.188148-26.927407 0-37.69837a27.685926 27.685926 0 0 0-39.063704 0L489.623704 579.830519l-128.398223-123.828149z" fill="#f6b637" p-id="15803"></path></svg>